<svg width="15" height="15" viewBox="0 0 15 15" fill="none" xmlns="http://www.w3.org/2000/svg">
<path d="M4.31673 7.13667C1.9834 7.13667 1.9834 8.18084 1.9834 9.47001V10.0533C1.9834 11.6633 1.9834 12.97 4.90007 12.97H9.56673C11.9001 12.97 12.4834 11.6633 12.4834 10.0533V9.47001C12.4834 8.18084 12.4834 7.13667 10.1501 7.13667C9.56673 7.13667 9.4034 7.25917 9.10006 7.48667L8.50507 8.11667C7.81673 8.85167 6.65007 8.85167 5.9559 8.11667L5.36673 7.48667C5.0634 7.25917 4.90007 7.13667 4.31673 7.13667Z" stroke="white" stroke-miterlimit="10" stroke-linecap="round" stroke-linejoin="round"/>
<path d="M11.3166 7.13666V3.63666C11.3166 2.3475 11.3166 1.30333 8.98324 1.30333H5.48324C3.1499 1.30333 3.1499 2.3475 3.1499 3.63666V7.13666" stroke="white" stroke-miterlimit="10" stroke-linecap="round" stroke-linejoin="round"/>
<path d="M6.3877 5.52086H8.3302" stroke="white" stroke-linecap="round" stroke-linejoin="round"/>
<path d="M5.90332 3.77086H8.81999" stroke="white" stroke-linecap="round" stroke-linejoin="round"/>
</svg>
