<svg width="1920" height="957" viewBox="0 0 1920 957" fill="none" xmlns="http://www.w3.org/2000/svg">
<g opacity="0.31">
<path d="M1915.09 713.385C1949.51 713.385 1982.16 699.654 2004.18 675.909L2235.72 426.235C2307.41 348.94 2227.26 234.437 2118.54 258.813L814.482 551.189C778.069 559.353 739.504 551.189 710.997 529.283L55.1877 25.3208C-16.9244 -30.0942 -128.632 11.5364 -135.775 96.488L-178.244 601.561C-183.319 661.91 -130.118 713.386 -62.6713 713.386L1915.09 713.385Z" fill="#C7FFF5"/>
<path d="M1899.31 867.136C1942.41 867.136 1981.96 845.669 2001.97 811.407L2213.61 448.993C2261.62 366.766 2174.64 273.573 2076 301.562L802.36 662.949C768.007 672.696 730.556 667.554 701.024 649.035L10.3552 215.929C-65.3975 168.426 -169.606 215.69 -171.902 298.592L-184.695 760.552C-186.313 818.984 -133.968 867.136 -68.8297 867.136L1899.31 867.136Z" fill="#63EED5"/>
<path d="M2114.79 994.219C2170.67 995.157 2219.33 960.18 2230.52 911.046L2344.12 411.846C2362.23 332.306 2276.32 265.654 2191.22 293.214L777.161 751.156C746.829 760.979 713.308 759.018 684.653 745.746L-36.8604 411.554C-114.001 375.823 -205.924 426.07 -205.924 503.968L-205.924 853.212C-205.924 909.892 -155.344 956.135 -92.1889 957.194L2114.79 994.219Z" fill="#58D6BF"/>
<path d="M1915.09 713.885C1949.64 713.885 1982.42 700.103 2004.55 676.249L2209.16 455.615L2001.54 811.154C1981.63 845.247 1942.25 866.636 1899.31 866.636L-68.8297 866.636C-133.741 866.636 -185.804 818.665 -184.195 760.566L-175.151 433.995C-171.621 430.565 -167.842 427.358 -163.849 424.393L-178.742 601.519C-183.846 662.216 -130.351 713.886 -62.6713 713.886L614.678 713.886L684.443 746.2C713.213 759.526 746.865 761.493 777.315 751.631L893.869 713.886L1915.09 713.885ZM2211.48 451.644L2003.81 675.569C1981.89 699.205 1949.38 712.885 1915.09 712.885L896.957 712.886L2155.99 305.147C2172.91 311.673 2187.77 321.786 2199.43 334.288C2227.38 364.227 2237.06 407.843 2213.17 448.74L2211.48 451.644ZM2002.4 811.659L2212.29 452.243L2236.09 426.575C2272.11 387.738 2269.98 339.524 2245.19 304.111C2241.01 298.136 2236.18 292.525 2230.79 287.385C2259.13 287.353 2285.63 296.91 2306.07 312.762C2335.79 335.823 2352.64 372.183 2343.64 411.735L2230.03 910.935C2218.91 959.805 2170.48 994.654 2114.8 993.72L-92.1805 956.694C-155.114 955.639 -205.424 909.571 -205.424 853.212L-205.424 503.968C-205.424 476.761 -194.15 452.934 -176.18 435.007L-185.195 760.539C-186.822 819.303 -134.195 867.636 -68.8297 867.636L1899.31 867.636C1942.57 867.636 1982.29 846.09 2002.4 811.659ZM2229.34 287.395C2235 292.683 2240.04 298.486 2244.37 304.684C2268.92 339.751 2271.02 387.437 2235.36 425.895L2214.59 448.289C2238.02 407.237 2228.15 363.59 2200.16 333.605C2188.66 321.275 2174.08 311.251 2157.5 304.661L2191.38 293.689C2204.13 289.558 2216.91 287.552 2229.34 287.395ZM2118.65 259.301C2162.64 249.437 2201.92 262.398 2228.28 286.413C2216.07 286.668 2203.56 288.691 2191.07 292.738L2156.02 304.087C2132.29 295.014 2104.57 292.936 2075.86 301.081L802.223 662.468C768.003 672.178 730.699 667.053 701.29 648.612L10.6209 215.505C-27.4105 191.657 -72.5795 191.599 -108.526 207.903C-123.263 214.587 -136.459 224.026 -146.98 235.71L-135.277 96.5299C-131.724 54.285 -102.173 22.782 -64.4823 8.73543C-26.7909 -5.31125 18.9791 -1.87334 54.883 25.7173L710.692 529.679C739.322 551.68 778.04 559.872 814.592 551.677L2118.65 259.301ZM-171.402 298.606C-170.758 275.379 -162.072 254.957 -148.231 238.659L-163.737 423.07C-167.749 426.002 -171.551 429.174 -175.112 432.57L-171.402 298.606ZM-177.746 601.603L-162.779 423.609C-158.747 420.686 -154.503 418.007 -150.08 415.589C-117.587 397.828 -75.4883 394.213 -37.0705 412.007L612.519 712.886L-62.6713 712.886C-129.884 712.886 -182.791 661.604 -177.746 601.603ZM614.898 712.886L-36.6502 411.1C-75.3733 393.164 -117.806 396.808 -150.56 414.712C-154.765 417.01 -158.81 419.544 -162.669 422.298L-147.119 237.371C-136.558 225.338 -123.152 215.635 -108.113 208.814C-72.4431 192.636 -27.6317 192.698 10.0896 216.353L700.758 649.459C730.414 668.055 768.011 673.215 802.496 663.43L2076.14 302.043C2104.15 294.093 2131.22 295.957 2154.5 304.581L893.711 712.886H614.898ZM684.864 745.292L617.057 713.886H890.623L777.007 750.68C746.794 760.464 713.403 758.511 684.864 745.292Z" stroke="#75D6AD"/>
</g>
</svg>
