<svg width="768" height="1080" viewBox="0 0 768 1080" fill="none" xmlns="http://www.w3.org/2000/svg">
<g clip-path="url(#clip0_513_134)">
<path d="M230.4 -640L204.852 -564.733C178.678 -489.467 128.523 -338.933 153.6 -188.4C178.678 -37.8667 282.123 112.667 281.652 263.2C282.122 413.733 178.678 564.267 192 714.8C205.322 865.333 332.278 1015.87 435.252 1166.4C537.6 1316.93 614.4 1467.47 652.8 1618C691.2 1768.53 691.2 1919.07 665.652 2069.6C639.477 2220.13 589.322 2370.67 601.548 2521.2C614.4 2671.73 691.2 2822.27 665.652 2972.8C639.477 3123.33 512.522 3273.87 460.8 3424.4C409.077 3574.93 435.722 3725.47 473.652 3876C512.522 4026.53 562.677 4177.07 588.852 4327.6C614.4 4478.13 614.4 4628.67 524.748 4779.2C435.722 4929.73 255.477 5080.27 243.252 5230.8C230.4 5381.33 384 5531.87 396.852 5682.4C409.077 5832.93 282.122 5983.47 255.948 6134C230.4 6284.53 307.2 6435.07 307.2 6585.6C307.2 6736.13 230.4 6886.67 204.852 7037.2C178.677 7187.73 205.322 7338.27 307.2 7488.8C409.077 7639.33 589.322 7789.87 588.852 7940.4C589.322 8090.93 409.077 8241.47 332.747 8392C255.477 8542.53 282.122 8693.07 332.747 8843.6C384 8994.13 460.8 9144.67 524.747 9295.2C589.322 9445.73 639.477 9596.27 678.347 9746.8C716.277 9897.33 742.922 10047.9 755.147 10123.1L768 10198.4L-0.000352883 10198.4L-0.000349593 10123.1C-0.000346303 10047.9 -0.000339723 9897.33 -0.000333143 9746.8C-0.000326563 9596.27 -0.000319983 9445.73 -0.000313403 9295.2C-0.000306823 9144.67 -0.000300243 8994.13 -0.000293663 8843.6C-0.000287083 8693.07 -0.000280503 8542.53 -0.000273923 8392C-0.000267343 8241.47 -0.000260763 8090.93 -0.000254183 7940.4C-0.000247603 7789.87 -0.000241023 7639.33 -0.000234443 7488.8C-0.000227863 7338.27 -0.000221283 7187.73 -0.000214703 7037.2C-0.000208123 6886.67 -0.000201543 6736.13 -0.000194963 6585.6C-0.000188383 6435.07 -0.000181803 6284.53 -0.000175223 6134C-0.000168643 5983.47 -0.000162063 5832.93 -0.000155483 5682.4C-0.000148903 5531.87 -0.000142323 5381.33 -0.000135743 5230.8C-0.000129163 5080.27 -0.000122583 4929.73 -0.000116003 4779.2C-0.000109423 4628.67 -0.000102843 4478.13 -9.62625e-05 4327.6C-8.96825e-05 4177.07 -8.31024e-05 4026.53 -7.65224e-05 3876C-6.99424e-05 3725.47 -6.33624e-05 3574.93 -5.67824e-05 3424.4C-5.02023e-05 3273.87 -4.36223e-05 3123.33 -3.70423e-05 2972.8C-3.04623e-05 2822.27 -2.38822e-05 2671.73 -1.73022e-05 2521.2C-1.07222e-05 2370.67 -4.14219e-06 2220.13 2.43784e-06 2069.6C9.01786e-06 1919.07 1.55979e-05 1768.53 2.21779e-05 1618C2.87579e-05 1467.47 3.53379e-05 1316.93 4.1918e-05 1166.4C4.8498e-05 1015.87 5.5078e-05 865.333 6.1658e-05 714.8C6.8238e-05 564.267 7.48181e-05 413.733 8.13981e-05 263.2C8.79781e-05 112.667 9.45581e-05 -37.8667 0.000101138 -188.4C0.000107718 -338.933 0.000114298 -489.467 0.000117588 -564.733L0.000120878 -640L230.4 -640Z" fill="url(#paint0_linear_513_134)"/>
<path opacity="0.55" d="M460.8 -640L435.252 -564.733C409.077 -489.467 358.922 -338.933 396.852 -188.4C435.722 -37.8666 562.677 112.667 576 263.2C589.322 413.733 485.877 564.267 422.4 714.8C358.922 865.333 332.277 1015.87 396.852 1166.4C460.8 1316.93 614.4 1467.47 652.8 1618C691.2 1768.53 614.4 1919.07 537.6 2069.6C460.8 2220.13 384 2370.67 371.147 2521.2C358.922 2671.73 409.077 2822.27 409.547 2972.8C409.077 3123.33 358.922 3273.87 396.852 3424.4C435.722 3574.93 562.677 3725.47 614.4 3876C666.122 4026.53 639.477 4177.07 627.252 4327.6C614.4 4478.13 614.4 4628.67 601.547 4779.2C589.322 4929.73 562.677 5080.27 576 5230.8C589.322 5381.33 639.477 5531.87 588.852 5682.4C537.6 5832.93 384 5983.47 384 6134C384 6284.53 537.6 6435.07 601.547 6585.6C666.122 6736.13 639.477 6886.67 639.947 7037.2C639.477 7187.73 666.122 7338.27 639.947 7488.8C614.399 7639.33 537.599 7789.87 512.052 7940.4C485.877 8090.93 512.522 8241.47 473.652 8392C435.722 8542.53 332.277 8693.07 268.799 8843.6C205.322 8994.13 178.677 9144.67 166.452 9295.2C153.599 9445.73 153.599 9596.27 140.747 9746.8C128.522 9897.33 101.877 10047.9 89.6516 10123.1L76.7994 10198.4L-0.000619133 10198.4L-0.000615843 10123.1C-0.000612553 10047.9 -0.000605973 9897.33 -0.000599393 9746.8C-0.000592813 9596.27 -0.000586233 9445.73 -0.000579653 9295.2C-0.000573073 9144.67 -0.000566493 8994.13 -0.000559913 8843.6C-0.000553333 8693.07 -0.000546753 8542.53 -0.000540173 8392C-0.000533593 8241.47 -0.000527013 8090.93 -0.000520433 7940.4C-0.000513853 7789.87 -0.000507273 7639.33 -0.000500693 7488.8C-0.000494113 7338.27 -0.000487533 7187.73 -0.000480953 7037.2C-0.000474373 6886.67 -0.000467793 6736.13 -0.000461213 6585.6C-0.000454633 6435.07 -0.000448053 6284.53 -0.000441473 6134C-0.000434893 5983.47 -0.000428313 5832.93 -0.000421733 5682.4C-0.000415153 5531.87 -0.000408573 5381.33 -0.000401993 5230.8C-0.000395413 5080.27 -0.000388833 4929.73 -0.000382253 4779.2C-0.000375673 4628.67 -0.000369093 4478.13 -0.000362513 4327.6C-0.000355933 4177.07 -0.000349353 4026.53 -0.000342773 3876C-0.000336193 3725.47 -0.000329612 3574.93 -0.000323032 3424.4C-0.000316452 3273.87 -0.000309872 3123.33 -0.000303292 2972.8C-0.000296712 2822.27 -0.000290132 2671.73 -0.000283552 2521.2C-0.000276972 2370.67 -0.000270392 2220.13 -0.000263812 2069.6C-0.000257232 1919.07 -0.000250652 1768.53 -0.000244072 1618C-0.000237492 1467.47 -0.000230912 1316.93 -0.000224332 1166.4C-0.000217752 1015.87 -0.000211172 865.333 -0.000204592 714.8C-0.000198012 564.267 -0.000191432 413.733 -0.000184852 263.2C-0.000178272 112.667 -0.000171692 -37.8667 -0.000165112 -188.4C-0.000158532 -338.933 -0.000151952 -489.467 -0.000148662 -564.733L-0.000145372 -640L460.8 -640Z" fill="url(#paint1_linear_513_134)"/>
</g>
<defs>
<linearGradient id="paint0_linear_513_134" x1="0.00012207" y1="-640" x2="768" y2="-640" gradientUnits="userSpaceOnUse">
<stop stop-color="#FAD0B9"/>
<stop offset="1" stop-color="#FFA031"/>
</linearGradient>
<linearGradient id="paint1_linear_513_134" x1="-0.00012207" y1="-640" x2="663.014" y2="-640" gradientUnits="userSpaceOnUse">
<stop stop-color="#F1BA7B"/>
<stop offset="1" stop-color="#FFC581"/>
</linearGradient>
<clipPath id="clip0_513_134">
<rect width="2258" height="768" fill="white" transform="translate(768 -640) rotate(90)"/>
</clipPath>
</defs>
</svg>
